<?xml version="1.0" standalone="no"?>
<!DOCTYPE svg PUBLIC "-//W3C//DTD SVG 20010904//EN"
 "http://www.w3.org/TR/2001/REC-SVG-20010904/DTD/svg10.dtd">
<svg version="1.0" xmlns="http://www.w3.org/2000/svg"
 width="2381.000000pt" height="2381.000000pt" viewBox="0 0 2381.000000 2381.000000"
 preserveAspectRatio="xMidYMid meet">
<metadata>
Created by potrace 1.11, written by Peter Selinger 2001-2013
</metadata>
<g transform="translate(0.000000,2381.000000) scale(0.100000,-0.100000)"
fill="#000000" stroke="none">
<path d="M7700 21949 c-497 -36 -989 -149 -1455 -333 -167 -66 -494 -229 -655
-326 -347 -210 -620 -422 -909 -705 -649 -637 -1097 -1408 -1321 -2277 -34
-135 -83 -360 -92 -426 -3 -21 -22 -31 -148 -76 -945 -342 -1729 -1048 -2177
-1961 -195 -398 -311 -788 -374 -1260 -31 -228 -34 -719 -6 -945 95 -769 375
-1444 843 -2030 138 -173 441 -476 614 -614 401 -319 869 -563 1343 -696 588
-167 1217 -194 1786 -79 52 11 95 18 96 17 1 -2 17 -41 35 -88 50 -125 205
-429 285 -555 175 -278 328 -469 569 -711 254 -253 461 -417 736 -584 140 -85
356 -198 363 -190 5 5 227 962 227 978 0 6 -46 38 -102 73 -226 138 -465 338
-634 530 -166 188 -260 319 -374 523 -110 197 -121 224 -422 1006 -32 85 -63
158 -67 162 -4 5 -207 -37 -451 -91 -245 -54 -488 -106 -540 -115 -779 -130
-1602 91 -2240 600 -120 96 -352 330 -450 454 -329 415 -539 900 -622 1435
-29 190 -32 633 -5 825 92 652 369 1224 812 1679 253 259 515 448 830 597 162
76 226 99 615 223 l335 106 8 55 c51 334 124 748 157 876 327 1302 1269 2332
2515 2748 169 57 422 119 585 145 254 40 332 46 630 45 244 0 323 -4 457 -22
840 -113 1579 -472 2186 -1061 147 -142 297 -323 599 -722 l302 -397 36 18
c21 10 181 99 356 196 494 275 601 327 829 404 652 222 1388 193 2026 -81 654
-280 1173 -784 1483 -1441 53 -112 119 -280 381 -973 75 -198 140 -364 144
-368 9 -9 46 13 341 203 554 356 820 521 940 581 302 151 582 237 930 286 186
26 537 23 730 -6 859 -128 1592 -606 2055 -1341 79 -126 210 -389 258 -520 85
-230 150 -494 179 -730 17 -136 17 -534 0 -670 -153 -1239 -1012 -2233 -2187
-2530 -185 -47 -311 -67 -524 -82 -187 -13 -413 -2 -611 31 -97 16 -803 163
-851 177 -12 3 -46 -49 -139 -218 -68 -123 -164 -295 -213 -383 -259 -461
-554 -803 -942 -1095 -535 -402 -1141 -627 -1822 -675 -51 -4 -93 -9 -93 -10
0 -2 -49 -218 -110 -480 -60 -262 -110 -484 -110 -492 0 -14 28 -15 258 -10
286 7 459 26 737 82 992 200 1884 754 2535 1575 105 133 289 402 350 514 30
54 47 76 57 72 8 -3 65 -15 126 -25 426 -74 892 -74 1327 0 1269 215 2383
1106 2900 2317 314 737 397 1562 239 2357 -204 1027 -809 1929 -1685 2513
-842 561 -1883 764 -2885 562 -399 -80 -824 -245 -1180 -456 -61 -36 -112 -64
-114 -62 -3 2 -23 49 -46 103 -204 493 -506 936 -895 1315 -639 622 -1420 987
-2314 1082 -148 15 -592 15 -740 0 -478 -51 -928 -180 -1340 -386 l-146 -73
-49 65 c-88 116 -265 313 -404 452 -727 722 -1661 1196 -2651 1345 -301 45
-767 65 -1050 44z"/>
<path d="M10157 13162 c-213 -663 -424 -1316 -539 -1672 -179 -556 -627 -1944
-713 -2210 -24 -74 -90 -281 -148 -460 -165 -508 -259 -804 -261 -815 -1 -7
240 -12 695 -15 l697 -5 -40 -110 c-23 -60 -115 -312 -205 -560 -91 -247 -225
-614 -298 -815 -73 -201 -211 -576 -305 -835 -156 -427 -314 -858 -455 -1245
-156 -427 -396 -1083 -659 -1804 -163 -445 -295 -813 -294 -818 2 -4 163 177
359 404 196 227 783 908 1304 1513 1782 2066 2440 2830 3488 4045 l1048 1215
-697 5 -696 5 513 715 c282 393 723 1008 980 1366 257 359 490 683 517 720 26
38 176 247 332 464 156 217 316 440 355 495 39 55 188 262 330 460 142 198
303 423 358 500 55 77 104 146 110 153 7 9 -548 12 -2769 12 l-2779 0 -228
-708z"/>
</g>
</svg>
